<svg xmlns="http://www.w3.org/2000/svg" width="1000" height="1000"><rect width="1000" height="1000" rx="0" ry="0" fill="#555"/><svg xmlns="http://www.w3.org/2000/svg" xmlns:xlink="http://www.w3.org/1999/xlink" xmlns:svgjs="http://svgjs.com/svgjs" width="500" height="500" transform="matrix(2 0 0 2 .904 4.992)"><svg xmlns="http://www.w3.org/2000/svg" xmlns:xlink="http://www.w3.org/1999/xlink" width="500" viewBox="0 0 375 375" height="500" version="1.0"><path d="M130.8 242.45V125.84h23.344v96.798h24.031v19.812ZM181.567 242.45l11.266-116.61h39.516l11.125 116.61h-22.125l-1.625-18.875h-14.125l-1.36 18.875Zm25.797-37.469h10.594l-5.156-59.328h-1.094ZM250.53 125.84h31.625c8.508 0 14.688 2.087 18.531 6.25 3.852 4.157 5.782 10.946 5.782 20.36v5.156c0 11.137-3.985 17.79-11.954 19.953 4.883 1.274 8.32 4.215 10.313 8.829 1.988 4.617 2.984 10.726 2.984 18.328 0 12.398-1.855 21.789-5.562 28.172-3.711 6.375-10.406 9.562-20.094 9.562H250.53Zm27.563 43.844c1.988 0 3.343-.742 4.062-2.234.727-1.488 1.094-3.594 1.094-6.312v-11.672c0-3.801-1.68-5.703-5.031-5.703h-4.875v25.921Zm-2.454 52.266c6.07 0 9.11-2.894 9.11-8.687V198.73c0-3.52-.524-6.187-1.563-8-1.043-1.812-2.875-2.718-5.5-2.718h-4.343v33.796ZM65.832 122.91h56.25v121.692h-56.25Zm0 0" fill="#e6e6dd"/><path d="M111.93 219.83c0 2.719-.958 4.746-2.876 6.078-1.914 1.336-4.816 2-8.703 2h-16.25c-3.476 0-6.11-.773-7.89-2.328-1.79-1.55-2.688-3.863-2.688-6.938 0-2.488.5-4.422 1.5-5.797.992-1.375 2.438-2.32 4.344-2.843 1.898-.532 4.34-.797 7.328-.797v7.375h-3.39c-.907 0-1.602.125-2.094.375-.5.25-.75.7-.75 1.344 0 1.43.937 2.14 2.812 2.14h18.266c1.137 0 2-.144 2.594-.437.585-.29.875-.801.875-1.532 0-.738-.29-1.253-.875-1.546-.594-.29-1.457-.438-2.594-.438h-5.406v2.031h-6.5v-9.234h21.953v3.031l-3.157 1.281c2.336 1.344 3.5 3.422 3.5 6.235ZM111.586 206.664h-37.72v-7.297h37.72ZM111.586 193.09h-30.47v4.484h-7.25V181.06h7.25v4.484h30.47ZM111.586 179.972l-37.72-3.641V163.55l37.72-3.61v7.172l-6.11.516v4.562l6.11.453Zm-12.125-8.344v-3.422l-19.188 1.672v.344ZM111.93 148.93c0 3.106-.876 5.415-2.626 6.923-1.757 1.5-4.363 2.25-7.812 2.25H73.867v-7.328h27.312c1.2 0 2.137-.114 2.813-.344.68-.238 1.016-.738 1.016-1.5 0-.758-.329-1.254-.985-1.485-.664-.238-1.613-.359-2.844-.359H73.867v-7.328h27.625c3.45 0 6.055.758 7.812 2.266 1.75 1.5 2.625 3.804 2.625 6.906Zm0 0" fill="#2b2b2b"/></svg></svg></svg>