<?xml version="1.0" standalone="no"?>
<!DOCTYPE svg PUBLIC "-//W3C//DTD SVG 20010904//EN"
 "http://www.w3.org/TR/2001/REC-SVG-20010904/DTD/svg10.dtd">
<svg version="1.0" xmlns="http://www.w3.org/2000/svg"
 width="700.000000pt" height="700.000000pt" viewBox="0 0 700.000000 700.000000"
 preserveAspectRatio="xMidYMid meet">
<metadata>
Created by potrace 1.14, written by Peter Selinger 2001-2017
</metadata>
<g transform="translate(0.000000,700.000000) scale(0.100000,-0.100000)"
fill="#000000" stroke="none">
<path d="M2967 6439 c-51 -12 -107 -42 -138 -73 l-27 -26 -4 -290 c-2 -159 -6
-291 -9 -294 -3 -3 -55 11 -116 31 l-111 37 -76 -55 c-41 -30 -76 -58 -76 -64
1 -17 57 -285 61 -289 2 -3 75 -8 162 -12 l157 -7 0 -48 c0 -26 -3 -50 -7 -52
-5 -3 -71 -13 -148 -22 -77 -10 -143 -20 -146 -24 -4 -3 15 -63 43 -133 l50
-128 54 0 c55 0 55 0 40 -22 -39 -56 -4 -133 65 -144 33 -6 39 -10 39 -30 0
-19 -5 -24 -25 -24 -73 0 -129 -55 -107 -105 10 -22 8 -27 -23 -52 l-34 -27
26 -46 c14 -25 28 -47 30 -49 2 -3 23 15 47 38 63 62 78 47 22 -22 -45 -55
-47 -58 -37 -94 6 -21 11 -55 11 -76 l0 -39 40 32 40 32 0 -149 c0 -162 -6
-191 -65 -348 -43 -116 -43 -137 5 -332 43 -178 52 -239 51 -337 -1 -95 -42
-399 -92 -676 -62 -346 -140 -776 -145 -788 -6 -21 -39 3 -67 51 -55 93 -172
177 -247 176 l-35 0 43 -17 c43 -17 114 -78 134 -115 9 -18 8 -19 -18 -12 -16
4 -36 8 -45 9 -9 1 -38 16 -65 33 -108 69 -257 121 -356 123 -33 0 -19 -17 18
-23 63 -10 178 -75 249 -140 l68 -63 -49 -31 c-61 -39 -241 -97 -426 -137 -32
-7 -57 -41 -88 -121 -31 -77 -61 -110 -116 -125 -72 -20 -218 -190 -201 -234
4 -9 24 -25 46 -34 l39 -18 -47 -18 c-65 -26 -121 -64 -121 -81 0 -21 72 -71
138 -95 79 -30 160 -35 283 -16 131 20 282 20 370 2 36 -8 102 -32 145 -54
109 -55 173 -72 270 -72 l83 0 27 -36 c16 -20 39 -38 55 -41 16 -3 26 -9 23
-14 -3 -5 7 -14 23 -21 30 -12 426 -17 643 -8 84 4 141 0 210 -12 175 -32 347
-39 576 -23 264 18 399 34 420 49 15 11 13 16 -16 49 -18 20 -28 37 -24 37 5
0 52 9 104 20 52 11 133 20 180 21 58 0 92 5 108 15 28 18 55 79 47 102 -6 17
-188 157 -312 240 -55 37 -63 46 -52 59 11 13 7 21 -27 52 -22 20 -49 41 -60
48 -15 9 9 12 122 12 127 1 239 12 253 26 2 3 -18 29 -46 58 -28 28 -54 63
-58 77 -17 56 -67 141 -88 149 -12 5 -56 16 -97 26 -174 41 -313 93 -379 142
l-63 48 48 43 c57 50 170 110 226 118 59 10 46 27 -14 19 -141 -17 -234 -55
-355 -142 -109 -78 -244 -163 -260 -163 -8 0 -13 13 -13 38 0 20 -4 107 -10
192 -5 85 -14 313 -20 505 -5 193 -15 413 -20 490 -13 180 -55 514 -85 680
-19 107 -24 179 -29 409 l-6 279 35 34 c60 58 60 122 0 150 -33 16 -35 20 -35
64 0 43 3 48 30 59 38 16 60 56 60 110 0 55 -21 92 -64 115 -36 19 -36 20 -36
85 0 61 2 68 29 87 l28 22 28 -30 c49 -50 121 -48 205 5 19 13 51 25 71 29 31
4 40 1 58 -19 44 -50 95 -39 181 42 37 35 57 45 94 50 41 6 49 4 62 -15 33
-47 68 -55 183 -41 153 18 175 25 213 69 31 36 38 39 105 45 64 6 75 5 101
-14 16 -12 48 -24 71 -27 46 -6 46 -6 56 -111 3 -34 13 -81 22 -105 14 -36 16
-90 14 -412 l-3 -369 -28 -56 c-46 -92 -71 -179 -75 -260 -2 -44 -15 -116 -32
-171 -34 -115 -38 -235 -10 -286 31 -58 100 -113 202 -164 198 -98 342 -95
406 8 21 34 24 49 23 138 -1 161 -52 315 -145 442 -26 36 -59 99 -74 141 -32
91 -78 166 -147 239 l-51 53 7 318 c6 302 5 320 -14 387 -11 39 -23 106 -27
150 l-6 80 47 -3 c50 -4 72 7 86 44 8 19 22 22 187 38 98 10 189 21 203 25 20
6 36 32 82 132 31 68 59 136 63 150 l7 27 -144 6 c-79 3 -217 9 -308 12 l-165
6 -20 32 c-22 33 -12 31 -190 37 -39 2 -119 -30 -127 -50 -3 -10 -703 10 -713
21 -3 3 8 16 24 28 17 12 31 26 31 31 0 5 -30 9 -67 9 -60 0 -70 3 -88 25 -16
20 -36 27 -110 39 -79 12 -95 12 -130 -1 -22 -8 -65 -14 -95 -14 -60 2 -103
-20 -120 -63 -15 -36 -11 241 6 507 9 137 13 251 9 255 -9 9 -184 7 -256 -3
-48 -6 -67 -3 -146 24 -93 32 -130 36 -196 20z m700 -815 c-3 -3 -12 -4 -19
-1 -8 3 -5 6 6 6 11 1 17 -2 13 -5z m906 -531 c-7 -2 -21 -2 -30 0 -10 3 -4 5
12 5 17 0 24 -2 18 -5z m-116 -9 c-3 -3 -12 -4 -19 -1 -8 3 -5 6 6 6 11 1 17
-2 13 -5z m-1681 -191 c-7 -7 -46 7 -46 17 0 5 10 19 23 30 l22 21 3 -31 c2
-18 1 -34 -2 -37z m804 -214 c0 -15 -4 -30 -9 -33 -10 -6 -21 26 -21 63 0 20
2 21 15 11 8 -7 15 -25 15 -41z m1618 -693 c27 -41 59 -104 71 -141 12 -38 47
-103 81 -153 71 -105 93 -159 120 -294 26 -125 21 -179 -20 -220 -24 -23 -37
-28 -77 -28 -96 0 -250 64 -337 141 -74 66 -80 125 -29 294 13 44 28 125 33
180 6 76 16 118 39 175 30 71 57 120 66 120 2 0 26 -33 53 -74z"/>
</g>
</svg>
