<svg xmlns="http://www.w3.org/2000/svg" version="1.0" viewBox="65.38 126.65 241.38 121.7"><defs><clipPath id="a"><path d="M65.375 126.652h56.25v121.696h-56.25Zm0 0"/></clipPath></defs><g clip-path="url(#a)"><path fill="#e6e6dd" d="M65.375 126.652h56.25v121.696h-56.25Zm0 0"/></g><path fill="#2b2b2b" d="M110.16 221.88c0 2.605-.915 4.547-2.75 5.828-1.844 1.273-4.626 1.906-8.344 1.906H83.519c-3.332 0-5.848-.738-7.547-2.219-1.707-1.488-2.563-3.703-2.563-6.64 0-2.383.477-4.235 1.422-5.547.95-1.32 2.336-2.235 4.156-2.735 1.825-.5 4.164-.75 7.016-.75v7.047h-3.234c-.864 0-1.536.121-2.016.36-.477.242-.719.668-.719 1.28 0 1.376.899 2.063 2.688 2.063h17.469c1.093 0 1.921-.14 2.484-.421.562-.282.844-.77.844-1.47 0-.695-.282-1.187-.844-1.468-.563-.281-1.39-.422-2.484-.422h-5.157v1.922h-6.218v-8.812h21v2.89l-3.032 1.219c2.25 1.293 3.375 3.281 3.375 5.969ZM109.816 209.275H73.737v-6.968h36.079ZM109.816 196.304H80.675v4.281h-6.938v-15.797h6.938v4.297h29.14ZM109.816 183.75l-36.079-3.484V168.03l36.079-3.437v6.843l-5.844.5v4.375l5.844.422Zm-11.594-7.984v-3.282l-18.36 1.594v.344ZM110.16 154.052c0 2.969-.837 5.18-2.516 6.625-1.688 1.437-4.18 2.156-7.485 2.156H73.737v-7.016h26.125c1.149 0 2.043-.109 2.688-.328.648-.226.969-.707.969-1.437 0-.727-.313-1.203-.938-1.422-.633-.227-1.539-.344-2.719-.344H73.737v-7.015h26.422c3.305 0 5.797.726 7.485 2.171 1.68 1.438 2.515 3.641 2.515 6.61Zm0 0"/><path fill="#e6e6dd" d="M128.506 227.25v-86.766h17.36V212.5h17.89v14.75ZM166.272 227.25l8.375-86.766h29.39l8.298 86.766h-16.47l-1.218-14.031h-10.5l-1.016 14.031Zm19.188-27.875h7.875l-3.829-44.14h-.812ZM217.581 140.484h23.532c6.32 0 10.914 1.555 13.78 4.657 2.864 3.093 4.298 8.14 4.298 15.14v3.844c0 8.281-2.965 13.23-8.89 14.844 3.632.949 6.19 3.14 7.671 6.578 1.477 3.43 2.219 7.969 2.219 13.625 0 9.23-1.383 16.219-4.14 20.969-2.763 4.742-7.743 7.109-14.938 7.109H217.58Zm20.5 32.625c1.477 0 2.485-.55 3.016-1.656.54-1.113.813-2.68.813-4.703v-8.688c0-2.82-1.247-4.234-3.735-4.234h-3.625v19.281ZM236.253 212c4.52 0 6.782-2.156 6.782-6.469v-10.797c0-2.632-.391-4.625-1.172-5.968-.774-1.344-2.137-2.016-4.094-2.016h-3.219v25.14ZM286.55 228.062c-7.875 0-13.562-1.953-17.062-5.859-3.5-3.906-5.25-10.203-5.25-18.89v-8.485H281.3v10.813c0 4.304 1.38 6.453 4.141 6.453 1.55 0 2.629-.453 3.234-1.36.602-.906.907-2.437.907-4.593 0-2.82-.34-5.16-1.016-7.016-.668-1.852-1.523-3.398-2.562-4.64-1.043-1.25-2.915-3.188-5.61-5.813l-7.469-7.485c-5.793-5.656-8.687-11.914-8.687-18.78 0-7.407 1.695-13.04 5.094-16.907 3.406-3.875 8.375-5.813 14.906-5.813 7.8 0 13.422 2.075 16.86 6.22 3.437 4.136 5.156 10.616 5.156 19.437h-17.672l-.11-5.969c0-1.145-.324-2.05-.968-2.719-.637-.676-1.528-1.015-2.672-1.015-1.344 0-2.356.37-3.032 1.109-.668.742-1 1.75-1 3.031 0 2.836 1.614 5.762 4.844 8.781l10.11 9.704c2.351 2.293 4.3 4.464 5.843 6.515 1.551 2.055 2.797 4.48 3.735 7.281.945 2.793 1.422 6.106 1.422 9.938 0 8.555-1.57 15.039-4.704 19.453-3.125 4.406-8.293 6.61-15.5 6.61Zm0 0"/></svg>