<svg xmlns="http://www.w3.org/2000/svg" version="1.0" viewBox="64.92 126.65 242.29 121.7"><defs><clipPath id="a"><path d="M64.918 126.652h56.25v121.696h-56.25Zm0 0"/></clipPath></defs><path d="M128.965 227.25v-86.766h17.36V212.5h17.89v14.75ZM166.73 227.25l8.376-86.766h29.39l8.297 86.766h-16.469l-1.218-14.031h-10.5l-1.016 14.031Zm19.188-27.875h7.875l-3.828-44.14h-.813ZM218.04 140.484h23.531c6.32 0 10.914 1.555 13.781 4.657 2.864 3.093 4.297 8.14 4.297 15.14v3.844c0 8.281-2.965 13.23-8.89 14.844 3.632.949 6.191 3.14 7.671 6.578 1.477 3.43 2.22 7.969 2.22 13.625 0 9.23-1.384 16.219-4.141 20.969-2.762 4.742-7.743 7.109-14.938 7.109H218.04Zm20.5 32.625c1.476 0 2.484-.55 3.015-1.656.54-1.113.813-2.68.813-4.703v-8.688c0-2.82-1.246-4.234-3.734-4.234h-3.625v19.281ZM236.712 212c4.52 0 6.781-2.156 6.781-6.469v-10.797c0-2.632-.39-4.625-1.172-5.968-.773-1.344-2.137-2.016-4.094-2.016h-3.218v25.14ZM287.009 228.062c-7.875 0-13.563-1.953-17.063-5.859-3.5-3.906-5.25-10.203-5.25-18.89v-8.485h17.063v10.813c0 4.304 1.379 6.453 4.14 6.453 1.551 0 2.63-.453 3.235-1.36.601-.906.906-2.437.906-4.593 0-2.82-.34-5.16-1.016-7.016-.667-1.852-1.523-3.398-2.562-4.64-1.043-1.25-2.914-3.188-5.61-5.813l-7.468-7.485c-5.793-5.656-8.688-11.914-8.688-18.78 0-7.407 1.696-13.04 5.094-16.907 3.406-3.875 8.375-5.813 14.906-5.813 7.801 0 13.422 2.075 16.86 6.22 3.437 4.136 5.156 10.616 5.156 19.437H289.04l-.11-5.969c0-1.145-.323-2.05-.968-2.719-.637-.676-1.527-1.015-2.672-1.015-1.344 0-2.355.37-3.031 1.109-.668.742-1 1.75-1 3.031 0 2.836 1.613 5.762 4.844 8.781l10.109 9.704c2.352 2.293 4.3 4.464 5.844 6.515 1.55 2.055 2.797 4.48 3.734 7.281.945 2.793 1.422 6.106 1.422 9.938 0 8.555-1.57 15.039-4.703 19.453-3.125 4.406-8.293 6.61-15.5 6.61Zm0 0" fill="#2b2b2b"/><g clip-path="url(#a)"><path fill="#2b2b2b" d="M64.918 126.652h56.25v121.696h-56.25Zm0 0"/></g><path d="M109.7 221.88c0 2.605-.913 4.547-2.75 5.828-1.843 1.273-4.624 1.906-8.343 1.906H83.06c-3.332 0-5.847-.738-7.547-2.219-1.707-1.488-2.562-3.703-2.562-6.64 0-2.383.476-4.235 1.422-5.547.949-1.32 2.336-2.235 4.156-2.735 1.824-.5 4.164-.75 7.016-.75v7.047H82.31c-.863 0-1.535.121-2.015.36-.477.242-.72.668-.72 1.28 0 1.376.9 2.063 2.688 2.063h17.47c1.093 0 1.921-.14 2.483-.421.563-.282.844-.77.844-1.47 0-.695-.281-1.187-.844-1.468-.562-.281-1.39-.422-2.484-.422h-5.156v1.922h-6.219v-8.812h21v2.89l-3.031 1.219c2.25 1.293 3.375 3.281 3.375 5.969ZM109.357 209.275H73.28v-6.968h36.078ZM109.357 196.304h-29.14v4.281h-6.938v-15.797h6.937v4.297h29.141ZM109.357 183.75l-36.078-3.484V168.03l36.078-3.437v6.843l-5.844.5v4.375l5.844.422Zm-11.594-7.984v-3.282l-18.359 1.594v.344ZM109.7 154.052c0 2.969-.835 5.18-2.515 6.625-1.687 1.437-4.18 2.156-7.484 2.156H73.279v-7.016h26.125c1.148 0 2.043-.109 2.687-.328.649-.226.97-.707.97-1.437 0-.727-.313-1.203-.938-1.422-.633-.227-1.54-.344-2.719-.344H73.279v-7.015h26.422c3.305 0 5.797.726 7.484 2.171 1.68 1.438 2.516 3.641 2.516 6.61Zm0 0" fill="#e6e6dd"/></svg>