<svg xmlns="http://www.w3.org/2000/svg" xmlns:xlink="http://www.w3.org/1999/xlink" width="500" zoomAndPan="magnify" viewBox="0 0 375 374.999991" height="500" preserveAspectRatio="xMidYMid meet" version="1.0"><defs><g/><clipPath id="922beb713b"><path d="M 65.832031 122.910156 L 122.082031 122.910156 L 122.082031 244.601562 L 65.832031 244.601562 Z M 65.832031 122.910156 " clip-rule="nonzero"/></clipPath></defs><g fill="#e6e6dd" fill-opacity="1"><g transform="translate(125.644217, 242.450051)"><g><path d="M 5.15625 0 L 5.15625 -116.609375 L 28.5 -116.609375 L 28.5 -19.8125 L 52.53125 -19.8125 L 52.53125 0 Z M 5.15625 0 "/></g></g></g><g fill="#e6e6dd" fill-opacity="1"><g transform="translate(179.536112, 242.450051)"><g><path d="M 2.03125 0 L 13.296875 -116.609375 L 52.8125 -116.609375 L 63.9375 0 L 41.8125 0 L 40.1875 -18.875 L 26.0625 -18.875 L 24.703125 0 Z M 27.828125 -37.46875 L 38.421875 -37.46875 L 33.265625 -96.796875 L 32.171875 -96.796875 Z M 27.828125 -37.46875 "/></g></g></g><g fill="#e6e6dd" fill-opacity="1"><g transform="translate(245.373796, 242.450051)"><g><path d="M 5.15625 -116.609375 L 36.78125 -116.609375 C 45.289062 -116.609375 51.46875 -114.523438 55.3125 -110.359375 C 59.164062 -106.203125 61.09375 -99.414062 61.09375 -90 L 61.09375 -84.84375 C 61.09375 -73.707031 57.109375 -67.054688 49.140625 -64.890625 C 54.023438 -63.617188 57.460938 -60.675781 59.453125 -56.0625 C 61.441406 -51.445312 62.4375 -45.335938 62.4375 -37.734375 C 62.4375 -25.335938 60.582031 -15.945312 56.875 -9.5625 C 53.164062 -3.1875 46.46875 0 36.78125 0 L 5.15625 0 Z M 32.71875 -72.765625 C 34.707031 -72.765625 36.0625 -73.507812 36.78125 -75 C 37.507812 -76.488281 37.875 -78.59375 37.875 -81.3125 L 37.875 -92.984375 C 37.875 -96.785156 36.195312 -98.6875 32.84375 -98.6875 L 27.96875 -98.6875 L 27.96875 -72.765625 Z M 30.265625 -20.5 C 36.335938 -20.5 39.375 -23.394531 39.375 -29.1875 L 39.375 -43.71875 C 39.375 -47.238281 38.851562 -49.90625 37.8125 -51.71875 C 36.769531 -53.53125 34.9375 -54.4375 32.3125 -54.4375 L 27.96875 -54.4375 L 27.96875 -20.640625 Z M 30.265625 -20.5 "/></g></g></g><g clip-path="url(#922beb713b)"><path fill="#e6e6dd" d="M 65.832031 122.910156 L 122.082031 122.910156 L 122.082031 244.601562 L 65.832031 244.601562 Z M 65.832031 122.910156 " fill-opacity="1" fill-rule="nonzero"/></g><g fill="#2b2b2b" fill-opacity="1"><g transform="translate(111.585686, 229.267354)"><g><path d="M 0.34375 -9.4375 C 0.34375 -6.71875 -0.613281 -4.691406 -2.53125 -3.359375 C -4.445312 -2.023438 -7.347656 -1.359375 -11.234375 -1.359375 L -27.484375 -1.359375 C -30.960938 -1.359375 -33.59375 -2.132812 -35.375 -3.6875 C -37.164062 -5.238281 -38.0625 -7.550781 -38.0625 -10.625 C -38.0625 -13.113281 -37.5625 -15.046875 -36.5625 -16.421875 C -35.570312 -17.796875 -34.125 -18.742188 -32.21875 -19.265625 C -30.320312 -19.796875 -27.878906 -20.0625 -24.890625 -20.0625 L -24.890625 -12.6875 L -28.28125 -12.6875 C -29.1875 -12.6875 -29.882812 -12.5625 -30.375 -12.3125 C -30.875 -12.0625 -31.125 -11.613281 -31.125 -10.96875 C -31.125 -9.539062 -30.1875 -8.828125 -28.3125 -8.828125 L -10.046875 -8.828125 C -8.910156 -8.828125 -8.046875 -8.972656 -7.453125 -9.265625 C -6.867188 -9.554688 -6.578125 -10.066406 -6.578125 -10.796875 C -6.578125 -11.535156 -6.867188 -12.050781 -7.453125 -12.34375 C -8.046875 -12.632812 -8.910156 -12.78125 -10.046875 -12.78125 L -15.453125 -12.78125 L -15.453125 -10.75 L -21.953125 -10.75 L -21.953125 -19.984375 L 0 -19.984375 L 0 -16.953125 L -3.15625 -15.671875 C -0.820312 -14.328125 0.34375 -12.25 0.34375 -9.4375 Z M 0.34375 -9.4375 "/></g></g></g><g fill="#2b2b2b" fill-opacity="1"><g transform="translate(111.585686, 207.976595)"><g><path d="M 0 -1.3125 L -37.71875 -1.3125 L -37.71875 -8.609375 L 0 -8.609375 Z M 0 -1.3125 "/></g></g></g><g fill="#2b2b2b" fill-opacity="1"><g transform="translate(111.585686, 198.011641)"><g><path d="M 0 -4.921875 L -30.46875 -4.921875 L -30.46875 -0.4375 L -37.71875 -0.4375 L -37.71875 -16.953125 L -30.46875 -16.953125 L -30.46875 -12.46875 L 0 -12.46875 Z M 0 -4.921875 "/></g></g></g><g fill="#2b2b2b" fill-opacity="1"><g transform="translate(111.585686, 180.627849)"><g><path d="M 0 -0.65625 L -37.71875 -4.296875 L -37.71875 -17.078125 L 0 -20.6875 L 0 -13.515625 L -6.109375 -13 L -6.109375 -8.4375 L 0 -7.984375 Z M -12.125 -9 L -12.125 -12.421875 L -31.3125 -10.75 L -31.3125 -10.40625 Z M -12.125 -9 "/></g></g></g><g fill="#2b2b2b" fill-opacity="1"><g transform="translate(111.585686, 159.337091)"><g><path d="M 0.34375 -10.40625 C 0.34375 -7.300781 -0.53125 -4.992188 -2.28125 -3.484375 C -4.039062 -1.984375 -6.644531 -1.234375 -10.09375 -1.234375 L -37.71875 -1.234375 L -37.71875 -8.5625 L -10.40625 -8.5625 C -9.207031 -8.5625 -8.269531 -8.675781 -7.59375 -8.90625 C -6.914062 -9.144531 -6.578125 -9.644531 -6.578125 -10.40625 C -6.578125 -11.164062 -6.90625 -11.660156 -7.5625 -11.890625 C -8.226562 -12.128906 -9.175781 -12.25 -10.40625 -12.25 L -37.71875 -12.25 L -37.71875 -19.578125 L -10.09375 -19.578125 C -6.644531 -19.578125 -4.039062 -18.820312 -2.28125 -17.3125 C -0.53125 -15.8125 0.34375 -13.507812 0.34375 -10.40625 Z M 0.34375 -10.40625 "/></g></g></g></svg>